#!OML:ASF X:\für Bonn\!DataBase\2005_08_10_Bjorn_Final\c3d\bjorn.ASF
:FULLY-SPECIFIED
:DEGREES
91
root 24.4079 17.4888 -15.5226 179.177 -25.6764 -163.779
lowerback 2.5915 2.41392 13.6292
upperback 8.09369 1.89218 3.67167
thorax 7.68224 1.3149 -3.61432
lowerneck -4.91885 7.76199 5.80346
upperneck -0.42689 10.1774 -11.6056
head 1.58925 4.87884 -4.05398
rclavicle 1.05511e-014 -5.81818e-014
rhumerus -19.7426 16.9308 -99.8782
rradius 88.6956
rwrist -0.407905
rhand -29.0775 26.4106
rfingers 7.12502
rthumb -2.42656 -3.55538
lclavicle 1.05511e-014 -5.81818e-014
lhumerus -55.1506 -22.0978 105.335
lradius 87.8801
lwrist 0.323419
lhand -34.2753 -22.8574
lfingers 7.12502
lthumb -7.44531 6.99155
rfemur -11.4152 1.93365 23.7891
rtibia 44.4999
rfoot -29.4194 24.1671
rtoes -11.29
lfemur -34.0333 4.36031 -5.20533
ltibia 92.5584
lfoot -12.8965 2.58514
ltoes -17.4007
92
root 24.2422 17.5504 -15.7303 179.345 -26.2042 -164.377
lowerback 2.53202 2.71474 13.1207
upperback 7.9571 2.38124 3.44384
thorax 7.60669 1.54831 -3.55488
lowerneck -4.60744 7.4173 5.66424
upperneck -0.351054 9.7355 -11.0153
head 1.63389 4.68914 -4.31451
rclavicle -2.88362e-014 -2.65874e-015
rhumerus -18.8421 18.1642 -100.001
rradius 89.488
rwrist -0.531371
rhand -29.1322 27.612
rfingers 7.12502
rthumb -2.47939 -2.35334
lclavicle -2.88362e-014 -2.65874e-015
lhumerus -55.9689 -21.7801 105.187
lradius 87.6214
lwrist 0.502632
lhand -34.0496 -22.2414
lfingers 7.12502
lthumb -7.22746 7.61513
rfemur -9.63367 1.93416 23.0814
rtibia 42.9322
rfoot -28.7071 23.7709
rtoes -12.209
lfemur -35.9236 4.43705 -6.40773
ltibia 91.3689
lfoot -13.9428 3.15824
ltoes -18.3985
93
root 24.0703 17.6215 -15.9458 179.529 -26.741 -164.991
lowerback 2.41777 3.01473 12.5502
upperback 7.83242 2.85775 3.21651
thorax 7.56644 1.77353 -3.45725
lowerneck -4.29692 7.07163 5.47326
upperneck -0.196681 9.29798 -10.7276
head 1.55831 4.48415 -4.20855
rclavicle 1.61264e-014 4.83047e-014
rhumerus -18.1174 19.1953 -100.13
rradius 90.3318
rwrist -0.66373
rhand -28.6854 28.7899
rfingers 7.12502
rthumb -2.04792 -1.17997
lclavicle 1.61264e-014 4.83047e-014
lhumerus -56.6958 -21.4572 104.946
lradius 87.395
lwrist 0.681838
lhand -33.8487 -21.8393
lfingers 7.12502
lthumb -7.0335 8.02388
rfemur -7.80525 1.82763 22.3414
rtibia 41.2874
rfoot -27.6591 23.4427
rtoes -13.374
lfemur -37.5833 4.46071 -7.66038
ltibia 89.8232
lfoot -14.8816 3.6548
ltoes -18.746
94
root 23.8876 17.7075 -16.1671 179.688 -27.2782 -165.587
lowerback 2.31547 3.32036 12.0015
upperback 7.71626 3.33835 2.98648
thorax 7.52905 2.00128 -3.37191
lowerneck -4.03332 6.7172 5.35584
upperneck 0.00492213 8.8474 -10.474
head 1.51443 4.26948 -4.12563
rclavicle 7.48549e-014 3.58309e-014
rhumerus -17.6303 20.0339 -100.35
rradius 91.2942
rwrist -0.570664
rhand -28.0413 29.3528
rfingers 7.12502
rthumb -1.4258 -0.622144
lclavicle 7.48549e-014 3.58309e-014
lhumerus -57.492 -21.1978 104.626
lradius 87.2487
lwrist 0.825819
lhand -33.828 -21.8553
lfingers 7.12502
lthumb -7.01354 8.00849
rfemur -5.88769 1.74606 21.6136
rtibia 39.5496
rfoot -26.3798 22.9772
rtoes -15.057
lfemur -39.0361 4.49264 -8.97608
ltibia 87.9209
lfoot -15.5734 4.22959
ltoes -19.8508
95
root 23.6988 17.8115 -16.3932 179.86 -27.8183 -166.137
lowerback 2.20779 3.62224 11.4623
upperback 7.57142 3.81567 2.75749
thorax 7.46035 2.22613 -3.28984
lowerneck -3.66215 6.35022 5.30941
upperneck 0.171258 8.37763 -10.2338
head 1.44436 4.04871 -4.06413
rclavicle 1.57537e-014 -1.95803e-014
rhumerus -17.2926 20.8021 -100.571
rradius 92.2391
rwrist -0.56223
rhand -27.3399 29.1995
rfingers 7.12502
rthumb -0.748419 -0.77895
lclavicle 1.57537e-014 -1.95803e-014
lhumerus -58.2019 -20.9075 104.233
lradius 87.0429
lwrist 0.839142
lhand -33.9076 -22.0025
lfingers 7.12502
lthumb -7.09036 7.85874
rfemur -3.96069 1.71606 20.9413
rtibia 37.7184
rfoot -24.6933 22.3659
rtoes -16.8295
lfemur -40.3411 4.50492 -10.2613
ltibia 85.6478
lfoot -15.9773 4.65252
ltoes -20.4983
96
root 23.5002 17.9274 -16.6201 179.977 -28.3435 -166.667
lowerback 2.14417 3.9269 10.9647
upperback 7.43853 4.29278 2.54648
thorax 7.38024 2.45039 -3.21204
lowerneck -3.22393 5.9686 5.24072
upperneck 0.292884 7.88667 -9.9972
head 1.34649 3.81876 -4.00089
rclavicle 9.04967e-014 -2.65378e-014
rhumerus -17.107 21.5661 -100.784
rradius 93.0214
rwrist -0.651908
rhand -26.8986 29.5107
rfingers 7.12502
rthumb -0.322145 -0.468828
lclavicle 9.04967e-014 -2.65378e-014
lhumerus -58.819 -20.6131 103.89
lradius 86.8129
lwrist 0.6978
lhand -34.0122 -21.9035
lfingers 7.12502
lthumb -7.19136 7.95432
rfemur -1.93658 1.64357 20.2571
rtibia 35.787
rfoot -22.5848 21.7712
rtoes -18.3066
lfemur -41.3046 4.30799 -11.4848
ltibia 83.0487
lfoot -16.3239 4.58531
ltoes -18.4025
97
root 23.295 18.0454 -16.8463 180.033 -28.8654 -167.1
lowerback 2.17134 4.22896 10.5735
upperback 7.26928 4.7748 2.34514
thorax 7.21736 2.67842 -3.18898
lowerneck -2.87086 5.59342 5.24973
upperneck 0.487931 7.40471 -9.77879
head 1.29508 3.58932 -3.9532
rclavicle 7.75509e-014 -1.13804e-014
rhumerus -17.0913 22.2907 -100.982
rradius 93.7119
rwrist -0.661748
rhand -26.5893 29.9308
rfingers 7.12502
rthumb -0.0233955 -0.0489308
lclavicle 7.75509e-014 -1.13804e-014
lhumerus -59.2016 -20.4473 103.491
lradius 86.3839
lwrist 0.597283
lhand -34.152 -21.7859
lfingers 7.12502
lthumb -7.32632 8.06722
rfemur 0.117582 1.52328 19.6227
rtibia 33.7837
rfoot -20.0338 21.2867
rtoes -19.7211
lfemur -42.003 3.99581 -12.5655
ltibia 80.201
lfoot -16.6364 4.17473
ltoes -14.5124
98
root 23.0836 18.1614 -17.0726 180.101 -29.3538 -167.51
lowerback 2.1719 4.53465 10.2092
upperback 7.10466 5.2518 2.15288
thorax 7.0757 2.90558 -3.1692
lowerneck -2.58065 5.21203 5.28202
upperneck 0.698839 6.91252 -9.60275
head 1.26347 3.35162 -3.92165
rclavicle -1.36938e-013 4.67144e-015
rhumerus -17.1475 23.0893 -101.124
rradius 94.2893
rwrist -0.392282
rhand -26.5578 30.1165
rfingers 7.12502
rthumb 0.00702418 0.136797
lclavicle -1.36938e-013 4.67144e-015
lhumerus -59.6292 -20.1638 103.181
lradius 86.048
lwrist 0.277564
lhand -34.6614 -21.3729
lfingers 7.12502
lthumb -7.81801 8.46252
rfemur 2.106 1.30579 18.9176
rtibia 31.7535
rfoot -16.7675 21.2155
rtoes -20.2421
lfemur -42.5373 3.74873 -13.6345
ltibia 77.1803
lfoot -17.0618 3.67842
ltoes -11.8499
99
root 22.8666 18.2745 -17.298 180.164 -29.8213 -167.933
lowerback 2.18269 4.82884 9.8397
upperback 6.93733 5.71182 1.95657
thorax 6.92155 3.12381 -3.1534
lowerneck -2.14503 4.84091 5.34431
upperneck 0.770042 6.42899 -9.43701
head 1.16344 3.12367 -3.90201
rclavicle 9.71809e-014 1.59028e-015
rhumerus -17.568 23.9558 -101.319
rradius 95.0587
rwrist 0.24929
rhand -26.6905 29.7395
rfingers 7.12502
rthumb -0.121164 -0.240207
lclavicle 9.71809e-014 1.59028e-015
lhumerus -60.1781 -19.9705 102.878
lradius 85.9629
lwrist 0.0293374
lhand -35.2234 -21.0966
lfingers 7.12502
lthumb -8.36039 8.71795
rfemur 4.02503 1.00292 18.1137
rtibia 29.7606
rfoot -12.8683 21.329
rtoes -19.6246
lfemur -42.8953 3.48403 -14.6864
ltibia 74.0178
lfoot -17.2336 3.08889
ltoes -9.42596
100
root 22.6456 18.3805 -17.5233 180.269 -30.2713 -168.379
lowerback 2.14954 5.11273 9.45421
upperback 6.77145 6.15194 1.74453
thorax 6.79017 3.33325 -3.14307
lowerneck -1.66752 4.47385 5.48186
upperneck 0.798513 5.94973 -9.3167
head 1.0478 2.89873 -3.91183
rclavicle -6.78353e-015 -8.05078e-015
rhumerus -17.9258 24.8015 -101.507
rradius 95.585
rwrist 0.998261
rhand -26.85 29.0798
rfingers 7.12502
rthumb -0.275249 -0.899792
lclavicle -6.78353e-015 -8.05078e-015
lhumerus -60.4436 -19.8238 102.646
lradius 85.8898
lwrist -0.2467
lhand -35.9015 -20.9976
lfingers 7.12502
lthumb -9.01476 8.78976
rfemur 5.79693 0.590183 17.1973
rtibia 27.9093
rfoot -8.71159 21.4336
rtoes -19.2327
lfemur -43.1097 3.22498 -15.7333
ltibia 70.7319
lfoot -17.0119 2.43462
ltoes -7.26221
